<?xml version="1.0" encoding="UTF-8"?>
<svg xmlns="http://www.w3.org/2000/svg" viewBox="0 0 192 192"><path fill="#010202" d="M132 68c-17.108 0-27.758-6.39-38.058-12.57C84.146 49.552 74.892 44 60 44c-21.962 0-37.028 14.686-37.178 14.834l-5.65-5.663C17.871 52.471 34.634 36 60 36c17.108 0 27.758 6.39 38.058 12.57C107.854 54.448 117.108 60 132 60c21.962 0 37.028-14.686 37.178-14.834l5.65 5.663C174.129 51.529 157.366 68 132 68zm42.829 26.829l-5.651-5.663C169.028 89.314 153.962 104 132 104c-14.892 0-24.146-5.552-33.942-11.43C87.758 86.39 77.108 80 60 80c-25.365 0-42.127 16.47-42.829 17.171l5.651 5.663C22.972 102.686 38.038 88 60 88c14.892 0 24.146 5.552 33.942 11.43 10.3 6.18 20.95 12.57 38.058 12.57 25.365 0 42.127-16.47 42.829-17.171zm0 44l-5.651-5.663C169.028 133.314 153.962 148 132 148c-14.892 0-24.146-5.552-33.942-11.43C87.758 130.39 77.108 124 60 124c-25.365 0-42.127 16.47-42.829 17.171l5.651 5.663C22.972 146.686 38.038 132 60 132c14.892 0 24.146 5.552 33.942 11.43 10.3 6.18 20.95 12.57 38.058 12.57 25.365 0 42.127-16.47 42.829-17.171z" style="fill: #ffffff;"/></svg>
