<?xml version="1.0" encoding="utf-8"?>
<!-- Generator: Adobe Illustrator 24.0.1, SVG Export Plug-In . SVG Version: 6.00 Build 0)  -->
<svg version="1.1" id="Icon_x5F_contour" xmlns="http://www.w3.org/2000/svg" xmlns:xlink="http://www.w3.org/1999/xlink" x="0px"
	 y="0px" viewBox="0 0 192 192" style="enable-background:new 0 0 192 192;" xml:space="preserve">
<path d="M128,96c0,17.6731-14.3269,32-32,32s-32-14.3269-32-32s14.3269-32,32-32S128,78.3269,128,96z M176,100h-16.1377
	c-1.99133,32.1076-27.7547,57.87097-59.8623,59.8623V176h-8v-16.1377C59.8924,157.87097,34.12903,132.1076,32.1377,100H16v-8
	h16.1377C34.12903,59.8924,59.8924,34.12903,92,32.1377V16h8v16.1377C132.1076,34.12903,157.87097,59.8924,159.8623,92H176V100z
	 M152,96c0-30.87842-25.12158-56-56-56S40,65.12158,40,96s25.12158,56,56,56S152,126.87842,152,96z"/>
<g>
</g>
<g>
</g>
<g>
</g>
<g>
</g>
<g>
</g>
<g>
</g>
<g>
</g>
<g>
</g>
<g>
</g>
<g>
</g>
<g>
</g>
<g>
</g>
<g>
</g>
<g>
</g>
<g>
</g>
</svg>
