<?xml version="1.0" encoding="UTF-8"?>
<svg xmlns="http://www.w3.org/2000/svg" viewBox="0 0 192 192"><path d="M96 92c-13.234 0-24-10.766-24-24s10.766-24 24-24 24 10.766 24 24-10.766 24-24 24zm0-40c-8.822 0-16 7.178-16 16s7.178 16 16 16 16-7.178 16-16-7.178-16-16-16zm0 123.879l-3.446-5.848c-.33-.56-32.99-55.983-39.978-67.964C47.126 93.317 44 80.906 44 68c0-28.673 23.327-52 52-52s52 23.327 52 52c0 12.905-3.125 25.317-8.575 34.067-6.99 11.98-39.65 67.405-39.979 67.964L96 175.879zM96 24c-24.262 0-44 19.738-44 44 0 11.305 2.764 22.475 7.393 29.88l.063.105c5.57 9.548 27.894 47.453 36.544 62.135 8.65-14.683 30.975-52.587 36.545-62.136l.063-.104C137.237 90.474 140 79.304 140 68c0-24.262-19.738-44-44-44z" style="fill: #ffffff;"/></svg>
