<?xml version="1.0" encoding="UTF-8"?>
<svg xmlns="http://www.w3.org/2000/svg" viewBox="0 0 192 192"><path d="M97.753 159.15a63.143 63.143 0 0 1-21.486-3.754c-16.838-6.086-30.003-18.479-37.072-34.895-7.068-16.417-7.023-34.498.126-50.913 10.682-24.525 35.882-39.901 62.71-38.26l11.647.713-9.635 6.583c-9.13 6.238-15.829 15.112-19.37 25.663-8.088 24.089 3.642 51.317 26.703 61.986 10.004 4.628 20.957 5.881 31.672 3.62l11.418-2.41-7.54 8.908c-12.432 14.687-30.63 22.759-49.173 22.759zM90.374 39.747c-19.08 2.66-35.875 15.028-43.718 33.036-6.258 14.366-6.298 30.19-.113 44.554s17.707 25.209 32.444 30.536c18.33 6.627 38.762 2.993 53.797-8.882a58.872 58.872 0 0 1-24.767-5.457c-13.026-6.026-23.362-16.688-29.105-30.02-5.744-13.332-6.391-28.167-1.824-41.773 2.806-8.357 7.324-15.807 13.286-21.994z" style="fill: #ffffff;"/></svg>
