<?xml version="1.0" encoding="UTF-8"?>
<svg xmlns="http://www.w3.org/2000/svg" viewBox="0 0 192 192"><path d="M96 136c-22.056 0-40-17.944-40-40s17.944-40 40-40 40 17.944 40 40-17.944 40-40 40zm0-72c-17.645 0-32 14.355-32 32s14.355 32 32 32 32-14.355 32-32-14.355-32-32-32zm4-48h-8v32h8V16zm0 128h-8v32h8v-32zm76-52h-32v8h32v-8zM48 92H16v8h32v-8zm107.397-49.74l-5.657-5.657-22.628 22.627 5.658 5.658 22.627-22.628zm-90.51 90.51l-5.657-5.658-22.627 22.628 5.657 5.657 22.628-22.627zm90.51 16.97l-22.627-22.628-5.658 5.658 22.628 22.627 5.657-5.657zm-90.51-90.51L42.26 36.603l-5.657 5.657L59.23 64.888l5.658-5.658z" style="fill: #ffffff;"/></svg>
