<?xml version="1.0" encoding="UTF-8"?>
<svg xmlns="http://www.w3.org/2000/svg" viewBox="0 0 192 192"><path d="M100 136.7V72h-8v64.7c-4.653 1.653-8 6.087-8 11.3 0 6.617 5.383 12 12 12s12-5.383 12-12c0-5.213-3.347-9.647-8-11.3zM96 152c-2.206 0-4-1.794-4-4s1.794-4 4-4 4 1.794 4 4-1.794 4-4 4zm20-116c0-11.028-8.972-20-20-20s-20 8.972-20 20v92.41A28.04 28.04 0 0 0 68 148c0 15.44 12.56 28 28 28s28-12.56 28-28a28.04 28.04 0 0 0-8-19.59V36zM96 168c-11.028 0-20-8.972-20-20a20.03 20.03 0 0 1 6.668-14.904L84 131.904V36c0-6.617 5.383-12 12-12s12 5.383 12 12v95.904l1.332 1.192A20.03 20.03 0 0 1 116 148c0 11.028-8.972 20-20 20zm44-136v8h-16v-8h16zm-16 20h16v8h-16v-8zm0 20h16v8h-16v-8zm0 20h16v8h-16v-8zm0 20h16v8h-16v-8z" style="fill: #ffffff;"/></svg>
