<?xml version="1.0" encoding="UTF-8"?>
<!-- Generator: Adobe Illustrator 24.0.1, SVG Export Plug-In . SVG Version: 6.00 Build 0)  -->
<svg xmlns="http://www.w3.org/2000/svg" xmlns:xlink="http://www.w3.org/1999/xlink" version="1.1" id="Icon_x5F_contour" x="0px" y="0px" viewBox="0 0 192 192" style="enable-background:new 0 0 192 192;" xml:space="preserve">
<path d="M96,144c-49.80176,0-74.48535-44.20312-75.51172-46.08447L19.44385,96l1.04443-1.91553C21.51465,92.20312,46.19824,48,96,48  s74.48535,44.20312,75.51172,46.08447L172.55615,96l-1.04443,1.91553C170.48535,99.79688,145.80176,144,96,144z M28.66943,95.99561  C33.8833,104.20312,56.6333,136,96,136c39.46875,0,62.13086-31.77441,67.33057-39.99512C158.11279,87.7915,135.36426,56,96,56  C56.53125,56,33.86914,87.7749,28.66943,95.99561z M96,124c-15.43945,0-28-12.56055-28-28s12.56055-28,28-28s28,12.56055,28,28  S111.43945,124,96,124z M96,76c-11.02783,0-20,8.97217-20,20s8.97217,20,20,20s20-8.97217,20-20S107.02783,76,96,76z" style="fill: #ffffff;"/>
<g>
</g>
<g>
</g>
<g>
</g>
<g>
</g>
<g>
</g>
<g>
</g>
<g>
</g>
<g>
</g>
<g>
</g>
<g>
</g>
<g>
</g>
<g>
</g>
<g>
</g>
<g>
</g>
<g>
</g>
</svg>
