<?xml version="1.0" encoding="UTF-8"?>
<svg xmlns="http://www.w3.org/2000/svg" viewBox="0 0 192 192"><path d="M108 159.798v-8c8.822 0 16-7.132 16-15.9 0-8.766-7.178-15.898-16-15.898H32v-8h76c13.234 0 24 10.721 24 23.899s-10.766 23.9-24 23.9zm68-39.9C176 106.722 165.234 96 152 96H16v8h136c8.822 0 16 7.132 16 15.899s-7.178 15.9-16 15.9v8c13.234 0 24-10.722 24-23.9zM160 60c0-15.44-12.56-28-28-28a27.916 27.916 0 0 0-19.001 7.434l5.43 5.875A19.938 19.938 0 0 1 132 40c11.028 0 20 8.972 20 20s-8.972 20-20 20H56v8h76c15.44 0 28-12.56 28-28z" style="fill: #ffffff;"/></svg>
